<?xml version="1.0" standalone="no"?>
<!DOCTYPE svg PUBLIC "-//W3C//DTD SVG 20010904//EN"
 "http://www.w3.org/TR/2001/REC-SVG-20010904/DTD/svg10.dtd">
<svg version="1.0" xmlns="http://www.w3.org/2000/svg"
 width="500.000000pt" height="500.000000pt" viewBox="0 0 500.000000 500.000000"
 preserveAspectRatio="xMidYMid meet">

<g transform="translate(0.000000,500.000000) scale(0.100000,-0.100000)"
fill="#000000" stroke="none">
<path d="M2453 4740 c-13 -5 -23 -7 -23 -5 0 9 -176 -90 -198 -112 -7 -7 -26
-20 -42 -29 -32 -20 -203 -191 -242 -244 -35 -48 -99 -170 -133 -255 -15 -38
-36 -88 -45 -110 -10 -22 -25 -61 -34 -88 -26 -76 -63 -161 -147 -337 -94
-197 -114 -267 -105 -367 7 -87 33 -160 89 -246 48 -75 163 -206 210 -239 30
-21 29 -19 -11 27 -109 128 -202 275 -233 370 -16 52 -16 179 1 230 7 22 43
103 80 180 91 187 118 253 232 555 79 208 213 386 376 498 60 42 85 45 41 6
-12 -10 -32 -42 -45 -70 -12 -28 -38 -64 -56 -79 l-33 -27 35 19 c122 69 148
83 154 83 4 0 -44 -50 -106 -112 -62 -61 -107 -113 -100 -116 6 -2 24 5 39 16
42 30 114 64 121 58 3 -3 -6 -15 -19 -26 -44 -38 -169 -164 -169 -172 0 -4 40
13 88 37 49 25 94 45 102 45 7 0 -25 -36 -71 -81 -46 -44 -77 -78 -69 -75 8 3
42 16 75 30 33 13 74 27 90 31 27 5 28 4 12 -7 -97 -68 -240 -188 -233 -195 2
-2 31 7 64 21 75 32 181 48 246 38 l49 -7 -59 -24 c-176 -71 -414 -268 -568
-471 -84 -110 -146 -259 -146 -349 0 -103 51 -219 133 -305 52 -55 52 -51 -6
37 -21 32 -50 88 -64 125 -34 93 -31 211 9 292 82 166 417 448 613 516 78 27
215 25 290 -6 90 -36 199 -103 303 -186 85 -69 113 -82 112 -51 -1 7 -14 27
-30 46 -22 26 -27 38 -19 47 19 23 -1 52 -56 83 -40 23 -56 38 -61 58 -3 16
-8 34 -10 41 -6 20 121 -81 189 -150 31 -32 62 -58 68 -58 26 0 81 35 93 59 8
14 23 35 35 45 22 20 27 45 13 61 -5 6 -24 48 -41 95 -18 47 -37 94 -42 105
-4 11 -20 51 -34 88 -59 163 -156 309 -286 432 -170 162 -351 257 -426 225z
m414 -427 c13 -8 23 -22 23 -29 0 -8 9 -14 20 -14 14 0 20 6 18 18 -3 14 4 17
37 15 24 -2 45 -10 53 -20 31 -41 83 -158 137 -308 31 -88 62 -168 67 -178 5
-10 7 -21 5 -24 -3 -2 -15 16 -26 42 -12 27 -29 49 -40 52 -21 5 -71 73 -71
96 0 33 -66 65 -99 48 -16 -9 -18 -8 -14 9 3 11 9 20 14 20 14 0 10 66 -5 79
-16 13 -127 4 -137 -11 -3 -5 -3 -24 0 -41 5 -25 12 -33 34 -35 15 -2 27 -6
27 -10 0 -4 11 -20 25 -36 14 -16 25 -33 25 -37 0 -5 17 -25 39 -46 21 -21 43
-53 49 -70 13 -39 -3 -45 -20 -8 -6 14 -14 25 -17 25 -3 0 -23 15 -43 33 -21
18 -64 48 -95 66 -100 59 -104 62 -101 72 2 6 8 11 13 11 22 0 35 21 29 47
-10 38 -23 51 -53 51 -37 0 -51 12 -54 46 l-2 29 88 -3 c57 -1 86 1 82 8 -3 5
-21 10 -40 10 -18 0 -41 3 -50 6 -16 6 -55 73 -55 94 0 31 85 27 137 -7z m73
-232 c16 -30 12 -41 -14 -41 -27 0 -56 24 -56 46 0 22 57 18 70 -5z m-95 -199
c-3 -3 -11 0 -18 7 -9 10 -8 11 6 5 10 -3 15 -9 12 -12z"/>
<path d="M3414 4586 c-4 -9 -4 -19 -2 -22 10 -10 713 -9 728 1 24 16 -74 23
-412 31 -283 6 -308 6 -314 -10z"/>
<path d="M1030 4580 c0 -5 9 -10 21 -10 11 0 17 5 14 10 -3 6 -13 10 -21 10
-8 0 -14 -4 -14 -10z"/>
<path d="M1160 4580 c-10 -7 27 -10 115 -10 72 0 220 -2 330 -4 110 -2 214 -1
230 2 30 6 30 6 5 13 -39 11 -663 10 -680 -1z"/>
<path d="M3290 4576 c0 -19 14 -28 34 -20 25 10 19 34 -9 34 -15 0 -25 -6 -25
-14z"/>
<path d="M800 4317 l0 -173 -55 -54 -55 -54 0 -96 c1 -87 3 -97 26 -124 14
-15 28 -26 31 -22 4 3 -3 16 -15 29 -19 20 -22 35 -22 113 l0 90 55 54 55 54
0 178 c0 112 -4 178 -10 178 -6 0 -10 -64 -10 -173z"/>
<path d="M986 4431 c-14 -23 8 -31 82 -31 75 0 114 11 98 27 -13 13 -173 17
-180 4z"/>
<path d="M1230 4426 c0 -20 16 -29 40 -21 32 10 25 35 -10 35 -19 0 -30 -5
-30 -14z"/>
<path d="M1362 4428 c3 -7 13 -15 22 -16 12 -3 17 1 14 10 -3 7 -13 15 -22 16
-12 3 -17 -1 -14 -10z"/>
<path d="M1447 4433 c-14 -13 -6 -23 18 -23 16 0 25 6 25 15 0 15 -31 21 -43
8z"/>
<path d="M1604 4429 c-7 -12 12 -29 34 -29 6 0 12 9 12 20 0 22 -34 28 -46 9z"/>
<path d="M2089 4373 c-13 -15 -12 -15 9 -4 23 12 28 21 13 21 -5 0 -15 -7 -22
-17z"/>
<path d="M3260 4331 c0 -11 26 -22 34 -14 12 12 5 23 -14 23 -11 0 -20 -4 -20
-9z"/>
<path d="M3355 4330 c-7 -12 39 -24 61 -16 8 3 12 10 9 16 -8 13 -62 13 -70 0z"/>
<path d="M3620 4330 c0 -5 9 -10 20 -10 11 0 20 5 20 10 0 6 -9 10 -20 10 -11
0 -20 -4 -20 -10z"/>
<path d="M3796 4331 c-12 -18 32 -22 226 -17 212 4 281 15 107 17 -57 0 -154
3 -216 5 -61 2 -114 0 -117 -5z"/>
<path d="M1077 4293 c-130 -6 -78 -23 71 -23 79 0 132 4 127 9 -13 12 -103 18
-198 14z"/>
<path d="M1395 4292 c-27 -2 -54 -7 -59 -13 -6 -5 40 -9 124 -9 77 0 130 4
125 9 -12 10 -121 18 -190 13z"/>
<path d="M1455 4210 c-3 -5 -1 -10 4 -10 6 0 11 5 11 10 0 6 -2 10 -4 10 -3 0
-8 -4 -11 -10z"/>
<path d="M1257 4204 c-11 -11 3 -24 24 -24 12 0 19 5 17 13 -5 14 -31 21 -41
11z"/>
<path d="M3530 4198 c0 -10 85 -12 407 -10 225 1 418 0 431 -3 l22 -5 -2 -308
-3 -307 -400 -3 c-249 -1 -403 -6 -409 -12 -7 -7 130 -9 409 -8 l420 3 0 330
0 330 -437 3 c-347 2 -438 0 -438 -10z"/>
<path d="M640 4172 c0 -19 -11 -39 -35 -62 l-35 -34 0 -339 0 -338 51 -55 c44
-46 79 -68 79 -49 0 2 -25 29 -55 58 l-55 53 -2 235 c-2 129 -2 276 -2 327 2
91 2 93 38 132 35 39 51 100 26 100 -5 0 -10 -13 -10 -28z"/>
<path d="M1054 4068 c-16 -12 -46 -37 -66 -57 l-38 -35 0 -156 0 -155 -90 -90
-90 -90 0 -208 0 -208 -46 -49 c-67 -72 -109 -96 -141 -81 -19 9 -29 9 -40 0
-19 -16 -13 -63 9 -67 18 -3 125 74 196 141 l42 41 0 209 0 210 90 91 90 92 0
156 0 156 58 51 57 51 267 0 c167 0 269 4 273 10 4 7 -88 10 -268 10 -266 0
-275 -1 -303 -22z m-464 -1157 c0 -22 -29 -36 -43 -22 -15 15 0 41 23 41 13 0
20 -7 20 -19z"/>
<path d="M3753 4048 c-22 -21 -23 -21 -43 -3 -20 18 -20 18 -20 -13 l0 -32 59
0 c51 0 59 3 64 21 13 49 -22 65 -60 27z"/>
<path d="M3893 4063 c-29 -4 -33 -8 -33 -34 0 -30 1 -30 48 -27 45 3 47 4 47
33 0 32 -7 35 -62 28z"/>
<path d="M4014 4056 c-9 -23 0 -61 14 -60 6 1 28 2 47 3 33 1 35 3 35 36 0 35
0 35 -45 35 -30 0 -47 -5 -51 -14z"/>
<path d="M4174 4056 c-3 -8 -4 -25 -2 -38 3 -20 8 -23 38 -20 38 3 51 17 48
47 -4 26 -75 35 -84 11z"/>
<path d="M1913 3842 c-130 -173 -253 -366 -253 -397 0 -35 79 72 210 285 45
74 94 152 107 173 48 76 15 45 -64 -61z"/>
<path d="M1148 3909 c-22 -12 -23 -52 -3 -69 11 -9 15 -35 15 -103 l0 -90 60
-63 61 -63 -3 -153 -3 -153 -85 -2 c-122 -2 -133 -5 -60 -14 36 -4 89 -6 118
-2 l52 5 0 167 0 167 -60 59 -60 59 0 83 c0 119 5 123 172 121 85 0 133 3 141
11 8 8 4 11 -18 12 -17 0 -81 1 -143 2 -70 1 -115 6 -120 13 -11 17 -45 24
-64 13z m56 -24 c5 -14 -17 -45 -33 -45 -16 0 -31 28 -25 44 8 20 50 21 58 1z"/>
<path d="M3471 3854 c-22 -26 -37 -52 -34 -60 3 -9 -1 -14 -12 -14 -10 0 -14
5 -10 13 4 6 -1 3 -9 -7 -21 -26 -20 -36 2 -36 14 0 15 -2 2 -10 -10 -6 -16
-6 -18 0 -4 12 -32 13 -32 2 0 -7 -52 -61 -163 -167 -20 -20 -34 -41 -31 -47
4 -6 3 -8 -3 -5 -5 3 -27 -12 -49 -34 l-39 -41 69 42 c38 23 77 43 86 45 16 3
16 0 -1 -35 -11 -22 -19 -44 -19 -50 0 -5 -4 -18 -9 -28 -52 -100 -70 -140
-64 -146 3 -3 1 -6 -5 -6 -7 0 -12 -4 -12 -9 0 -5 -23 -58 -50 -118 -28 -59
-55 -117 -60 -128 -21 -47 -93 -203 -111 -241 -11 -22 -21 -47 -22 -55 -2 -8
-6 -20 -10 -26 -5 -7 -5 -18 -1 -25 4 -6 3 -8 -3 -5 -6 4 -14 0 -17 -9 -4 -10
-2 -13 7 -8 6 4 2 -3 -10 -15 -13 -12 -23 -27 -23 -32 0 -6 -9 -24 -20 -39
-11 -16 -21 -40 -22 -54 -1 -14 -5 -26 -8 -26 -3 0 -11 -15 -19 -32 -58 -134
-141 -303 -149 -306 -5 -1 -12 7 -15 20 -3 13 -21 68 -42 123 -20 55 -37 105
-39 110 -20 72 -28 95 -35 99 -4 3 -18 -18 -30 -47 -12 -29 -29 -64 -37 -79
-8 -14 -14 -33 -14 -41 0 -9 -3 -17 -7 -19 -7 -2 -44 -73 -48 -88 -3 -15 -61
-129 -65 -130 -5 0 -34 118 -45 185 -3 17 -10 48 -15 70 -5 22 -14 69 -20 105
-6 36 -15 83 -20 105 -13 63 -27 143 -41 233 l-13 82 -20 -32 c-11 -18 -25
-36 -31 -40 -5 -4 -6 -8 -2 -8 4 0 3 -6 -3 -12 -14 -18 -60 -88 -60 -93 0 -2
-16 -30 -34 -61 -19 -32 -32 -62 -29 -67 3 -6 2 -7 -3 -4 -10 6 -91 -124 -139
-223 -65 -134 -92 -275 -71 -378 21 -103 116 -215 214 -253 77 -30 214 -32
290 -4 51 18 189 121 179 132 -3 3 -40 -12 -83 -34 -76 -37 -81 -38 -184 -38
-90 0 -111 4 -150 24 -133 69 -199 204 -170 349 11 58 90 247 109 262 7 5 60
105 100 187 14 29 29 53 33 53 8 0 70 -218 113 -400 7 -33 67 -267 78 -307 6
-23 15 -39 20 -36 5 3 20 31 34 62 14 31 49 107 79 168 30 62 54 117 54 123 0
5 3 10 8 10 7 0 36 -85 97 -290 15 -47 30 -94 35 -105 l8 -20 8 20 c38 99 148
376 159 400 7 17 21 50 30 75 10 25 23 59 30 75 8 17 22 53 33 80 11 28 32 77
47 110 15 33 33 74 40 90 7 17 22 50 33 75 11 25 41 95 66 155 26 61 51 119
56 130 12 27 79 184 115 270 37 90 73 167 102 223 19 35 30 68 27 74 -4 6 -3
8 3 5 9 -6 27 20 23 31 -1 2 7 10 17 18 10 7 14 14 10 14 -5 0 2 15 15 32 12
18 21 40 19 48 -1 8 0 12 4 8 4 -4 23 16 42 45 66 98 68 113 4 41z m-151 -178
c0 -2 -8 -10 -17 -17 -16 -13 -17 -12 -4 4 13 16 21 21 21 13z m-50 -70 c0 -2
-6 -9 -14 -15 -11 -9 -16 -9 -22 0 -4 7 -3 9 4 5 6 -3 13 -2 17 4 6 10 15 14
15 6z"/>
<path d="M3770 3890 c0 -6 92 -10 240 -10 149 0 240 4 240 10 0 6 -91 9 -240
9 -148 0 -240 -3 -240 -9z"/>
<path d="M3813 3803 c-148 -5 -130 -23 23 -23 96 0 125 3 122 13 -5 14 -9 14
-145 10z"/>
<path d="M4055 3802 c-17 -17 5 -22 96 -22 76 0 100 3 96 13 -2 8 -32 12 -95
13 -50 1 -94 -1 -97 -4z"/>
<path d="M1390 3750 c-7 -4 -9 -13 -6 -19 10 -16 46 -14 46 3 0 17 -23 27 -40
16z"/>
<path d="M684 3715 c-4 -10 -1 -21 7 -26 23 -14 31 -10 27 13 -4 27 -26 35
-34 13z"/>
<path d="M3725 3710 c-13 -5 27 -9 108 -9 83 -1 126 3 122 9 -8 12 -202 12
-230 0z"/>
<path d="M4060 3710 c0 -6 35 -10 85 -10 50 0 85 4 85 10 0 6 -35 10 -85 10
-50 0 -85 -4 -85 -10z"/>
<path d="M1000 3310 c0 -158 4 -270 9 -270 12 0 17 121 13 353 -2 108 -7 187
-13 187 -5 0 -9 -108 -9 -270z"/>
<path d="M2628 3574 c-3 -3 -74 -6 -158 -7 -144 -1 -191 -9 -135 -23 35 -9 20
-27 -16 -19 -38 8 -161 -5 -157 -17 8 -23 260 -118 314 -118 44 0 134 24 197
53 29 13 71 32 95 42 23 10 42 22 42 26 0 17 -77 31 -144 26 -65 -5 -68 0 -13
17 10 3 15 10 12 16 -7 11 -28 13 -37 4z"/>
<path d="M3340 3530 c0 -7 15 -40 34 -75 80 -148 95 -245 55 -365 -30 -93
-173 -302 -280 -410 -69 -70 -31 -47 53 32 81 76 197 222 236 298 78 148 67
327 -30 475 -31 47 -68 71 -68 45z"/>
<path d="M3847 3423 c-4 -3 -7 -55 -7 -115 l0 -108 195 0 c107 0 195 2 195 4
0 3 -4 16 -10 31 -5 14 -7 58 -3 100 6 74 6 74 37 78 17 2 4 5 -28 5 -52 2
-58 0 -41 -11 15 -11 16 -21 10 -53 -4 -21 -7 -60 -6 -86 2 -44 1 -48 -21 -48
-13 -1 -84 -2 -158 -3 l-135 -2 0 108 c0 100 -6 122 -28 100z"/>
<path d="M4020 3420 c-11 -7 -7 -10 18 -10 17 0 32 5 32 10 0 13 -30 13 -50 0z"/>
<path d="M4113 3413 c9 -2 23 -2 30 0 6 3 -1 5 -18 5 -16 0 -22 -2 -12 -5z"/>
<path d="M4374 3404 c12 -11 16 -36 16 -99 l0 -84 -44 -6 c-25 -4 -48 -5 -53
-2 -4 2 -17 1 -28 -4 -13 -5 4 -8 50 -8 39 0 75 3 82 7 8 5 10 37 6 110 -5 92
-8 102 -25 102 -18 0 -18 -1 -4 -16z"/>
<path d="M910 3391 c30 -8 40 -41 13 -41 -11 0 -25 6 -32 13 -10 10 -12 8 -9
-8 5 -28 53 -33 67 -6 17 31 3 51 -33 50 -29 -1 -29 -1 -6 -8z"/>
<path d="M1136 3372 c-3 -6 -1 -14 5 -17 15 -10 25 3 12 16 -7 7 -13 7 -17 1z"/>
<path d="M2096 3356 c17 -59 75 -106 131 -106 34 0 103 28 103 42 0 15 -145
76 -193 81 -45 4 -47 3 -41 -17z"/>
<path d="M2835 3373 c-100 -20 -210 -66 -200 -83 10 -16 75 -40 109 -40 41 0
91 32 116 72 28 46 20 61 -25 51z"/>
<path d="M3680 3335 c0 -8 5 -15 10 -15 6 0 10 7 10 15 0 8 -4 15 -10 15 -5 0
-10 -7 -10 -15z"/>
<path d="M4098 3313 c12 -2 30 -2 40 0 9 3 -1 5 -23 4 -22 0 -30 -2 -17 -4z"/>
<path d="M2410 3188 c-29 -24 -65 -54 -82 -67 -20 -17 -46 -26 -82 -29 -65 -5
-108 8 -172 53 -78 56 -84 19 -12 -69 34 -42 111 -73 196 -79 33 -2 65 -7 71
-11 6 -4 19 -2 30 4 32 17 51 12 51 -12 0 -44 15 -52 94 -56 42 -2 73 -8 70
-13 -3 -5 -16 -9 -29 -9 -44 0 -55 -10 -55 -51 l0 -39 84 0 c100 0 111 -8 104
-75 -6 -51 4 -57 35 -19 12 14 36 43 53 63 72 85 174 291 174 351 0 36 -5 37
-61 6 -98 -53 -157 -46 -279 35 -49 33 -100 59 -114 59 -14 0 -46 -18 -76 -42z"/>
<path d="M522 3203 c4 -21 33 -25 33 -3 0 8 -8 16 -18 18 -14 3 -18 -1 -15
-15z"/>
<path d="M1100 3050 c0 -5 9 -10 20 -10 11 0 20 5 20 10 0 6 -9 10 -20 10 -11
0 -20 -4 -20 -10z"/>
<path d="M1190 3050 c0 -5 9 -10 20 -10 11 0 20 5 20 10 0 6 -9 10 -20 10 -11
0 -20 -4 -20 -10z"/>
<path d="M3704 3050 c-38 -7 -19 -18 37 -21 24 -1 49 -6 54 -10 6 -4 42 -5 80
-1 53 5 70 11 70 22 0 12 -18 15 -106 15 -58 0 -118 -2 -135 -5z"/>
<path d="M4020 3040 c20 -13 80 -13 80 0 0 6 -21 10 -47 10 -35 0 -44 -3 -33
-10z"/>
<path d="M894 2999 c-9 -16 20 -41 39 -33 27 10 21 44 -7 44 -14 0 -28 -5 -32
-11z"/>
<path d="M1092 2878 c6 -18 28 -21 28 -4 0 9 -7 16 -16 16 -9 0 -14 -5 -12
-12z"/>
<path d="M1315 2796 c-88 -45 -205 -107 -260 -138 -118 -67 -119 -69 -262
-333 -85 -157 -187 -365 -181 -371 11 -10 84 85 132 170 45 81 49 86 66 71 23
-20 32 -82 20 -125 -8 -26 -7 -38 4 -48 21 -22 37 -4 35 36 -1 21 -2 56 -1 78
2 52 26 65 46 26 18 -36 142 -144 133 -117 -3 11 -21 63 -40 115 -47 131 -51
143 -40 139 10 -4 118 -143 165 -212 33 -49 116 -137 130 -137 14 0 1 67 -37
184 -55 168 -101 274 -181 413 -18 31 -18 33 0 46 11 8 111 60 222 117 242
122 237 118 221 146 -12 21 -15 20 -172 -60z"/>
<path d="M3476 2836 c-52 -120 -158 -407 -153 -413 2 -1 57 51 122 117 64 67
119 119 121 117 3 -2 -16 -94 -42 -203 -25 -109 -48 -210 -51 -224 l-4 -25 23
28 c13 15 36 42 51 60 l28 32 -7 -47 c-3 -27 -4 -48 0 -48 3 0 25 21 48 47
116 127 137 148 142 143 2 -3 -13 -80 -35 -170 -43 -183 -54 -282 -29 -287 9
-2 66 56 142 144 133 156 165 189 173 181 3 -3 -20 -67 -51 -142 -31 -76 -54
-140 -51 -142 2 -3 48 39 100 92 l96 98 7 -64 c5 -45 9 -58 14 -44 10 27 31
43 66 50 27 5 32 1 53 -38 35 -61 115 -162 119 -149 5 16 -212 446 -282 559
-55 89 -60 94 -149 146 -51 30 -144 79 -207 111 -63 31 -140 69 -170 84 l-56
27 -18 -40z"/>
<path d="M758 2813 c-29 -7 -21 -25 10 -21 15 2 26 7 25 13 -2 12 -12 14 -35
8z"/>
<path d="M828 2814 c-15 -14 4 -24 48 -24 24 0 44 5 44 10 0 6 -6 10 -14 10
-7 0 -26 3 -42 6 -16 3 -32 2 -36 -2z"/>
<path d="M2483 2715 c-8 -23 8 -31 64 -30 41 0 48 3 48 20 0 17 -8 20 -53 23
-41 2 -54 0 -59 -13z"/>
<path d="M1355 2631 c-60 -26 -118 -51 -128 -54 -36 -13 -29 -36 38 -122 37
-48 69 -84 72 -81 2 2 -11 41 -30 85 -20 44 -32 83 -28 85 4 3 29 -15 56 -39
27 -25 50 -45 51 -45 2 0 1 33 -2 73 l-5 72 36 -40 c20 -22 43 -53 51 -68 8
-15 18 -26 22 -23 11 6 -2 199 -13 203 -5 1 -59 -19 -120 -46z"/>
<path d="M3279 2619 c-30 -34 -82 -82 -117 -107 -39 -28 -60 -48 -54 -54 13
-13 71 13 115 51 36 32 123 159 114 167 -3 3 -29 -23 -58 -57z"/>
<path d="M3185 2210 c-4 -7 -3 -16 3 -22 14 -14 47 -6 47 12 0 18 -40 26 -50
10z"/>
<path d="M1420 2200 c0 -5 23 -10 50 -10 28 0 50 5 50 10 0 6 -22 10 -50 10
-27 0 -50 -4 -50 -10z"/>
<path d="M2980 2200 c0 -5 25 -10 55 -10 30 0 55 5 55 10 0 6 -25 10 -55 10
-30 0 -55 -4 -55 -10z"/>
<path d="M1480 2060 c0 -13 11 -13 30 0 12 8 11 10 -7 10 -13 0 -23 -4 -23
-10z"/>
<path d="M2920 2040 c0 -6 36 -11 85 -12 47 -1 95 -2 107 -2 12 -1 23 5 26 12
3 9 -23 12 -107 12 -67 0 -111 -4 -111 -10z"/>
<path d="M2930 1900 c-10 -7 15 -10 80 -9 62 0 88 3 75 9 -28 12 -137 12 -155
0z"/>
<path d="M1594 1648 c-22 -10 -31 -40 -74 -263 -6 -33 -16 -80 -22 -103 l-11
-44 -33 134 c-19 73 -36 142 -39 153 -29 120 -27 114 -61 121 -40 7 -54 0 -54
-31 0 -13 -5 -36 -10 -51 -6 -15 -13 -43 -16 -62 -3 -19 -10 -47 -16 -61 -5
-14 -9 -27 -8 -29 3 -6 -33 -158 -39 -165 -4 -4 -22 68 -40 160 -50 254 -45
243 -99 243 l-45 0 8 -52 c4 -29 9 -64 11 -78 2 -14 8 -45 13 -70 5 -25 26
-129 47 -232 l38 -188 57 0 56 0 33 138 c45 189 53 222 60 222 3 0 25 -81 48
-180 l44 -180 53 0 52 0 11 43 c6 23 15 67 21 97 55 275 59 296 67 340 3 19
10 50 16 68 11 36 4 82 -13 82 -6 0 -7 -4 -4 -10 8 -12 -8 -13 -20 -1 -6 5
-19 5 -31 -1z"/>
<path d="M2790 1650 c11 -7 4 -10 -26 -10 l-41 0 -7 -77 c-3 -42 -6 -179 -6
-305 l0 -228 170 0 170 0 0 55 0 55 -110 0 -110 0 0 75 0 75 90 0 90 0 0 55 0
55 -90 0 c-87 0 -90 1 -96 25 -3 14 -4 43 -2 65 2 22 -1 40 -5 40 -5 0 -4 7 3
15 10 12 36 15 112 15 87 0 99 2 94 16 -3 9 -6 25 -6 38 0 20 -5 22 -97 24
-53 2 -104 7 -114 13 -23 12 -38 11 -19 -1z"/>
<path d="M729 1623 c-6 -16 -19 -59 -30 -98 -10 -38 -28 -103 -39 -142 -11
-40 -29 -106 -40 -145 -11 -40 -28 -103 -39 -140 l-20 -68 60 0 c39 0 61 4 63
13 2 6 10 33 16 60 l13 47 93 0 c88 0 93 -1 99 -22 3 -13 11 -40 17 -60 l11
-38 58 0 58 0 -20 73 c-11 39 -41 142 -65 227 -25 85 -54 189 -65 230 -11 41
-26 78 -32 82 -7 4 -38 8 -70 8 -54 0 -58 -2 -68 -27z m86 -132 c3 -11 8 -29
10 -42 2 -12 14 -57 25 -100 11 -43 20 -81 20 -84 0 -3 -29 -5 -64 -5 l-64 0
14 58 c7 31 19 87 26 125 12 68 22 82 33 48z"/>
<path d="M2319 1640 c-1 -3 -1 -8 0 -12 0 -4 -6 -5 -13 -2 -8 3 -28 -2 -45
-11 -17 -8 -32 -12 -33 -8 -5 20 -13 -354 -9 -459 l3 -118 60 0 59 0 -2 108
-2 107 38 0 37 0 45 -107 46 -108 64 0 63 0 -48 93 c-77 147 -76 144 -45 159
68 33 96 180 52 274 -15 30 -26 43 -36 40 -8 -3 -11 -2 -8 4 3 5 -4 14 -16 20
-17 10 -20 9 -14 -2 3 -7 -1 -4 -9 7 -14 16 -29 19 -101 20 -47 0 -86 -2 -86
-5z m147 -100 c55 -30 40 -170 -19 -186 -13 -3 -43 -4 -68 -2 l-44 3 -3 100
-3 100 57 -2 c31 0 67 -7 80 -13z"/>
<path d="M3159 1648 c-5 -21 -9 -108 -15 -340 l-7 -278 57 0 56 0 0 185 c0
117 4 185 10 185 5 0 9 -3 8 -7 -1 -5 34 -69 78 -143 44 -74 91 -154 104 -177
l24 -43 58 0 59 0 -5 301 c-3 191 -9 306 -15 312 -8 8 -11 8 -11 0 0 -8 -15
-10 -45 -7 l-45 5 0 -180 c0 -100 -3 -181 -7 -181 -5 0 -27 35 -51 78 -70 125
-108 182 -117 174 -5 -4 -5 -2 -2 4 7 13 -28 73 -48 80 -8 4 -13 10 -10 14 3
5 -8 8 -23 8 -16 -1 -34 2 -41 6 -6 4 -11 6 -12 4z m79 -45 c-10 -2 -18 -9
-18 -14 0 -6 -5 -7 -11 -3 -14 8 8 24 31 23 11 -1 10 -3 -2 -6z"/>
<path d="M3997 1638 c-10 -5 -24 -7 -32 -4 -23 8 -10 -26 61 -161 l67 -128
-23 -40 c-12 -22 -35 -62 -50 -90 -15 -27 -44 -79 -64 -113 -20 -35 -36 -66
-36 -68 0 -3 30 -4 67 -2 l67 3 50 98 c28 53 53 97 56 97 3 0 28 -44 55 -98
l50 -97 68 -3 c37 -2 67 -1 67 2 0 2 -16 33 -36 68 -21 34 -58 101 -85 148
l-47 86 74 147 c52 102 71 149 62 152 -7 2 -32 3 -56 2 -41 -2 -45 -5 -72 -52
-16 -27 -38 -70 -49 -94 -24 -51 -34 -47 -70 23 -12 25 -26 48 -32 51 -5 4 -7
11 -4 16 4 5 3 9 -2 9 -4 0 -15 14 -22 32 -8 18 -16 27 -19 20 -3 -9 -8 -10
-16 -3 -7 6 -18 6 -29 -1z"/>
<path d="M1837 1633 c-3 -4 -39 -134 -81 -288 -42 -154 -79 -288 -82 -297 -5
-16 2 -18 55 -18 l60 0 13 60 12 60 93 0 c66 0 95 -4 97 -12 2 -7 10 -34 16
-60 l13 -48 58 0 c33 0 59 2 59 5 0 8 -39 152 -66 245 -14 47 -32 108 -40 135
-8 28 -16 57 -19 65 -3 8 -11 37 -18 64 -10 37 -19 50 -35 52 -19 3 -76 22
-113 38 -10 4 -19 4 -22 -1z m104 -231 c15 -59 30 -115 34 -124 6 -16 0 -18
-59 -18 -36 0 -66 4 -66 9 0 5 10 49 21 98 25 104 27 114 28 131 3 37 19 0 42
-96z"/>
<path d="M3720 1521 c0 -64 -3 -200 -7 -303 l-6 -188 61 0 62 0 0 244 c0 133
-3 270 -6 302 l-6 59 -49 1 -49 2 0 -117z"/>
<path d="M3199 728 c-40 -40 -88 -85 -107 -100 l-35 -28 -232 0 -232 0 -47
-50 c-25 -27 -46 -55 -46 -62 1 -7 20 8 43 33 23 25 51 50 62 56 11 5 119 9
250 8 l229 -1 84 80 c87 83 131 136 113 136 -5 0 -42 -33 -82 -72z"/>
<path d="M1707 720 c42 -39 63 -50 63 -30 0 6 -4 10 -10 10 -5 0 -25 14 -43
30 -51 44 -59 36 -10 -10z"/>
<path d="M2845 700 c-3 -5 3 -10 14 -10 12 0 21 5 21 10 0 6 -6 10 -14 10 -8
0 -18 -4 -21 -10z"/>
<path d="M1830 690 c0 -6 30 -10 71 -10 44 0 68 4 64 10 -3 6 -35 10 -71 10
-36 0 -64 -4 -64 -10z"/>
<path d="M1998 693 c6 -2 18 -2 25 0 6 3 1 5 -13 5 -14 0 -19 -2 -12 -5z"/>
<path d="M2098 683 c12 -2 32 -2 45 0 12 2 2 4 -23 4 -25 0 -35 -2 -22 -4z"/>
<path d="M2196 572 c-7 -12 27 -22 74 -22 25 1 31 3 20 9 -25 15 -87 24 -94
13z"/>
<path d="M2108 563 c7 -3 16 -2 19 1 4 3 -2 6 -13 5 -11 0 -14 -3 -6 -6z"/>
</g>
</svg>
